<?xml version="1.0" standalone="no"?>
<!DOCTYPE svg PUBLIC "-//W3C//DTD SVG 20010904//EN"
 "http://www.w3.org/TR/2001/REC-SVG-20010904/DTD/svg10.dtd">
<svg version="1.0" xmlns="http://www.w3.org/2000/svg"
 width="700.000000pt" height="700.000000pt" viewBox="0 0 700.000000 700.000000"
 preserveAspectRatio="xMidYMid meet">
<metadata>
Created by potrace 1.14, written by Peter Selinger 2001-2017
</metadata>
<g transform="translate(0.000000,700.000000) scale(0.100000,-0.100000)"
fill="#000000" stroke="none">
<path d="M4300 5890 c-116 -39 -174 -175 -123 -290 12 -28 102 -125 282 -304
l264 -264 -263 -264 c-281 -280 -303 -309 -303 -398 0 -48 26 -109 63 -147 59
-64 171 -83 248 -44 24 12 148 128 302 282 l261 262 262 -261 c144 -144 271
-268 283 -276 25 -18 88 -31 133 -28 110 6 208 123 195 233 -10 83 -22 99
-295 373 l-268 269 263 263 c154 154 271 279 281 301 28 57 24 140 -9 197 -54
93 -152 131 -257 100 -42 -13 -77 -44 -317 -284 l-270 -269 -265 265 c-179
179 -277 269 -303 280 -55 23 -104 24 -164 4z"/>
<path d="M1025 5239 c-46 -13 -111 -73 -130 -121 -49 -122 16 -262 136 -296
23 -6 370 -9 955 -8 881 1 920 2 954 20 104 56 149 184 101 289 -24 52 -53 80
-111 106 -44 20 -60 21 -960 20 -503 0 -929 -5 -945 -10z"/>
<path d="M1890 3049 c-46 -19 -90 -60 -115 -108 l-24 -48 -1 -349 c0 -191 -2
-349 -4 -351 -2 -2 -154 -4 -337 -4 -184 0 -350 -5 -370 -10 -53 -13 -100 -49
-130 -99 -35 -57 -41 -109 -22 -174 18 -62 84 -130 140 -145 23 -7 171 -11
381 -11 l342 0 0 -342 c0 -192 4 -358 10 -378 13 -47 63 -106 111 -130 104
-53 236 -11 292 93 21 41 22 51 24 382 1 187 2 348 3 358 0 16 23 17 348 17
l348 0 55 28 c76 38 112 92 117 176 4 55 0 71 -23 114 -15 27 -40 59 -56 71
-64 47 -88 50 -445 50 -185 0 -338 2 -341 4 -2 3 -5 164 -6 359 -2 382 -1 375
-59 439 -53 61 -164 87 -238 58z"/>
<path d="M4155 2619 c-77 -6 -116 -22 -157 -66 -58 -61 -74 -161 -39 -239 22
-49 51 -78 106 -107 40 -21 43 -21 955 -22 1011 -1 971 -4 1037 63 45 45 66
94 65 157 0 105 -74 195 -170 211 -51 8 -1700 11 -1797 3z"/>
<path d="M4145 1750 c-33 -3 -73 -13 -90 -22 -98 -53 -141 -173 -100 -276 23
-55 95 -119 147 -129 22 -5 448 -8 947 -7 1008 0 943 -4 1014 69 104 107 71
277 -67 347 -39 20 -58 21 -916 22 -481 0 -902 -1 -935 -4z"/>
</g>
</svg>
